<?xml version="1.0" standalone="no"?>
<!DOCTYPE svg PUBLIC "-//W3C//DTD SVG 20010904//EN"
 "http://www.w3.org/TR/2001/REC-SVG-20010904/DTD/svg10.dtd">
<svg version="1.0" xmlns="http://www.w3.org/2000/svg"
 width="512.000000pt" height="512.000000pt" viewBox="0 0 512.000000 512.000000"
 preserveAspectRatio="xMidYMid meet">
<metadata>
Created by potrace 1.16, written by Peter Selinger 2001-2019
</metadata>
<g transform="translate(0.000000,512.000000) scale(0.100000,-0.100000)"
fill="#ededeb" stroke="none">
<path d="M2264 4275 c-556 -82 -1042 -429 -1293 -925 -65 -128 -142 -333 -129
-345 5 -5 215 -64 230 -65 3 0 19 37 34 83 167 506 601 889 1126 992 113 23
341 30 453 16 434 -58 818 -293 1053 -646 45 -67 152 -269 152 -287 0 -4 -43
-8 -95 -8 -52 0 -95 -4 -95 -9 0 -17 317 -715 326 -718 5 -1 82 161 170 360
l161 362 -97 3 -97 3 -37 97 c-229 591 -773 1014 -1406 1092 -113 13 -344 11
-456 -5z"/>
<path d="M1725 2903 c-11 -2 -44 -11 -72 -19 l-53 -15 0 -79 c0 -44 3 -80 7
-80 3 0 35 11 70 25 132 53 254 39 261 -31 5 -50 -26 -68 -119 -73 l-79 -3 0
-64 0 -64 65 0 c114 0 164 -39 139 -108 -24 -68 -140 -87 -259 -43 -111 42
-105 45 -105 -47 l0 -81 53 -16 c80 -25 260 -31 328 -12 115 34 178 109 179
212 0 69 -26 114 -84 144 l-47 24 34 20 c54 31 80 86 75 159 -4 54 -8 64 -40
94 -50 45 -121 64 -237 63 -53 -1 -105 -3 -116 -6z"/>
<path d="M2499 2894 c-74 -22 -140 -72 -177 -134 -47 -79 -56 -121 -57 -250 0
-111 1 -118 33 -183 19 -39 47 -78 67 -93 99 -75 293 -72 389 8 73 60 104 176
76 280 -36 129 -196 180 -352 113 -46 -19 5 74 59 111 46 31 107 37 176 19 32
-8 60 -15 62 -15 3 0 5 33 5 74 0 58 -3 75 -16 80 -30 11 -219 5 -265 -10z
m73 -364 c57 -16 81 -53 76 -118 -6 -68 -39 -106 -94 -106 -61 0 -104 70 -104
171 0 39 2 43 33 52 43 12 46 12 89 1z"/>
<path d="M3120 2901 c-128 -39 -183 -143 -184 -346 -1 -259 74 -363 267 -373
208 -11 298 80 314 318 14 211 -52 361 -176 399 -42 12 -182 14 -221 2z m162
-148 c31 -28 43 -84 43 -208 0 -169 -24 -225 -98 -225 -42 0 -63 15 -80 57
-32 83 -30 278 5 350 25 51 88 64 130 26z"/>
<path d="M890 2505 c-1 -6 -29 -184 -64 -397 -54 -333 -60 -388 -47 -388 9 0
55 11 103 24 l87 24 41 -74 c22 -40 74 -119 116 -175 503 -667 1412 -880 2159
-507 346 174 620 450 786 795 74 152 74 148 -46 194 -108 41 -135 46 -135 26
0 -27 -117 -245 -175 -327 -79 -111 -238 -269 -350 -349 -98 -69 -290 -166
-397 -201 -184 -59 -450 -85 -633 -61 -332 44 -635 192 -869 427 -84 84 -174
198 -225 284 l-20 36 89 23 c50 13 90 26 90 30 0 7 -459 574 -491 606 -10 11
-19 15 -19 10z"/>
</g>
</svg>
